<svg width="25" height="24" viewBox="0 0 25 24" fill="none" xmlns="http://www.w3.org/2000/svg">
<path d="M3.62545 0C2.04831 0 0.768311 1.28 0.768311 2.85714V21.1429C0.768311 22.72 2.04831 24 3.62545 24H21.9112C23.4883 24 24.7683 22.72 24.7683 21.1429V2.85714C24.7683 1.28 23.4883 0 21.9112 0H3.62545ZM5.33974 8H9.18572C9.60286 8 11.8598 7.97161 11.8598 10.0402C11.8598 11.1373 11.111 11.5084 10.7739 11.6741C11.2767 11.8341 12.1969 12.2971 12.1969 13.7143C12.1969 15.9029 9.68804 16 9.3509 16H5.33974V8ZM15.054 8H19.054V9.14286H15.054V8ZM7.05403 9.38839V11.2634H8.89443C9.14586 11.2634 9.97925 11.1257 9.97925 10.2857C9.97925 9.44571 8.89385 9.38839 8.72813 9.38839H7.05403ZM17.1857 9.71429C19.4143 9.71429 20.0195 11.4513 20.1109 11.8627C20.1967 12.2799 20.1969 12.6457 20.1969 13.1429H15.6824C15.6824 13.64 15.9458 14.76 17.2772 14.76C17.6315 14.76 17.8937 14.6746 18.1623 14.5089C18.4251 14.3432 18.5174 14.1825 18.6031 14.0167H20.1054C19.8425 14.6739 19.4884 15.1719 18.9569 15.5033C18.4255 15.8348 17.8084 16 17.0998 16C16.6541 16 16.214 15.9146 15.7683 15.7489C15.414 15.5832 15.0602 15.3372 14.7973 15.0915C14.5345 14.8401 14.3573 14.5085 14.1801 14.0971C14.003 13.7657 13.9112 13.2686 13.9112 12.8571C13.9112 12.4457 14.0772 9.71429 17.1857 9.71429ZM17.1857 10.8739C15.8943 10.8739 15.6824 12.1142 15.6824 12.1942H18.5172C18.4258 11.7828 18.0543 10.8739 17.1857 10.8739ZM7.05403 12.4063V14.6116H8.9692C9.13435 14.6116 10.2996 14.5605 10.2996 13.5491C10.2996 12.5434 9.38406 12.4063 8.9692 12.4063H7.05403Z" fill="#1E2429"/>
</svg>
