<svg width="24" height="20" viewBox="0 0 24 20" fill="none" xmlns="http://www.w3.org/2000/svg">
<g id="e-mail">
<path id="Union" fill-rule="evenodd" clip-rule="evenodd" d="M6.3013 0.823529C5.01415 0.823509 3.97667 0.823493 3.16071 0.933197C2.31354 1.0471 1.60025 1.29076 1.03374 1.85727C0.467232 2.42378 0.223567 3.13707 0.109669 3.98423C-3.50581e-05 4.8002 -1.94076e-05 5.83768 5.35418e-07 7.12482V12.8752C-1.94076e-05 14.1623 -3.50581e-05 15.1998 0.109669 16.0158C0.223567 16.8629 0.467232 17.5762 1.03374 18.1427C1.60025 18.7092 2.31354 18.9529 3.16071 19.0668C3.97668 19.1765 5.01416 19.1765 6.30132 19.1765H17.6987C18.9858 19.1765 20.0233 19.1765 20.8393 19.0668C21.6865 18.9529 22.3998 18.7092 22.9663 18.1427C23.5328 17.5762 23.7764 16.8629 23.8903 16.0158C24 15.1998 24 14.1624 24 12.8752V7.1248C24 5.83768 24 4.80019 23.8903 3.98423C23.7764 3.13707 23.5328 2.42378 22.9663 1.85727C22.3998 1.29076 21.6865 1.0471 20.8393 0.933197C20.0233 0.823493 18.9858 0.823509 17.6987 0.823529H6.3013ZM2.03201 2.85554C2.29249 2.59506 2.65821 2.42522 3.34882 2.33237C4.05974 2.23679 5.00196 2.23529 6.35294 2.23529H17.6471C18.998 2.23529 19.9403 2.23679 20.6512 2.33237C21.3418 2.42522 21.7075 2.59506 21.968 2.85554C22.2285 3.11602 22.3983 3.48174 22.4912 4.17235C22.5357 4.50395 22.5599 4.88587 22.5729 5.33612L12.947 10.149C12.3509 10.4471 11.6491 10.4471 11.053 10.149L1.42711 5.33612C1.44015 4.88587 1.46426 4.50395 1.50884 4.17235C1.6017 3.48174 1.77153 3.11602 2.03201 2.85554ZM1.41181 6.90687C1.41177 6.99489 1.41177 7.08474 1.41177 7.17647V12.8235C1.41177 14.1745 1.41326 15.1167 1.50884 15.8277C1.6017 16.5183 1.77153 16.884 2.03201 17.1445C2.29249 17.4049 2.65821 17.5748 3.34882 17.6676C4.05974 17.7632 5.00196 17.7647 6.35294 17.7647H17.6471C18.998 17.7647 19.9403 17.7632 20.6512 17.6676C21.3418 17.5748 21.7075 17.4049 21.968 17.1445C22.2285 16.884 22.3983 16.5183 22.4912 15.8277C22.5867 15.1167 22.5882 14.1745 22.5882 12.8235V7.17647C22.5882 7.08474 22.5882 6.99489 22.5882 6.90687L13.5784 11.4118C12.5848 11.9086 11.4152 11.9086 10.4216 11.4118L1.41181 6.90687Z" fill="#E2CE06"/>
</g>
</svg>
