<svg width="81" height="81" viewBox="0 0 81 81" fill="none" xmlns="http://www.w3.org/2000/svg">
<g id="icon github" filter="url(#filter0_d_109_331)">
<path id="Vector" d="M40.2305 7.5C22.2609 7.5 7.69266 22.0512 7.69266 40C7.69266 55.3463 18.345 68.2 32.6655 71.6075C31.9246 71.4312 31.19 71.2337 30.4691 71.0087V63.5625C30.4691 63.5625 29.249 63.9687 27.6221 63.9687C23.0705 63.9687 21.1796 59.9125 20.7078 57.875C20.4212 56.6337 19.6728 55.4575 18.8694 54.7388C17.9095 53.8838 17.4603 53.8812 17.454 53.5887C17.4415 52.975 18.2775 53 18.6742 53C20.7078 53 22.2496 55.1612 22.9654 56.2787C24.7387 59.0375 26.6422 59.5 27.6221 59.5C28.8423 59.5 29.896 59.3175 30.6218 58.9675C30.9572 56.6075 32.0084 54.505 33.7229 53C26.0928 51.4763 20.7078 47.105 20.7078 40C20.7078 36.34 22.1783 32.9763 24.6286 30.26C24.3783 29.5513 23.9616 28.1175 23.9616 25.7812C23.9616 24.2375 24.0692 22.3425 24.775 20.5C24.775 20.5 29.4154 20.5325 33.7918 24.6725C35.8116 24.085 37.9729 23.75 40.2305 23.75C42.4881 23.75 44.6494 24.085 46.6692 24.6725C51.0456 20.5325 55.686 20.5 55.686 20.5C56.3955 22.3425 56.4994 24.2375 56.4994 25.7812C56.4994 28.3 56.164 29.7688 55.9588 30.4025C58.3341 33.0938 59.7532 36.405 59.7532 40C59.7532 47.105 54.3682 51.4763 46.7381 53C48.7754 54.7875 49.9918 57.3913 49.9918 60.3125V71.0087C49.271 71.235 48.5377 71.4312 47.7955 71.6075C62.1159 68.2 72.7683 55.3463 72.7683 40C72.7683 22.0512 58.2001 7.5 40.2305 7.5ZM42.4994 72.4125C41.7498 72.465 40.9939 72.5 40.2305 72.5C40.9939 72.5 41.7485 72.4638 42.4994 72.4125ZM40.2305 72.5C39.4671 72.5 38.7112 72.465 37.9616 72.4125C38.7125 72.4638 39.4671 72.5 40.2305 72.5ZM37.4623 72.375C35.9393 72.2463 34.445 72.0138 32.9896 71.6825C34.4463 72.0125 35.9393 72.2463 37.4623 72.375Z" fill="#1E2429"/>
</g>
<defs>
<filter id="filter0_d_109_331" x="-3.81607" y="0" width="88.0931" height="88" filterUnits="userSpaceOnUse" color-interpolation-filters="sRGB">
<feFlood flood-opacity="0" result="BackgroundImageFix"/>
<feColorMatrix in="SourceAlpha" type="matrix" values="0 0 0 0 0 0 0 0 0 0 0 0 0 0 0 0 0 0 127 0" result="hardAlpha"/>
<feOffset dy="4"/>
<feGaussianBlur stdDeviation="2"/>
<feComposite in2="hardAlpha" operator="out"/>
<feColorMatrix type="matrix" values="0 0 0 0 0 0 0 0 0 0 0 0 0 0 0 0 0 0 0.25 0"/>
<feBlend mode="normal" in2="BackgroundImageFix" result="effect1_dropShadow_109_331"/>
<feBlend mode="normal" in="SourceGraphic" in2="effect1_dropShadow_109_331" result="shape"/>
</filter>
</defs>
</svg>
