<svg width="28" height="28" viewBox="0 0 28 28" fill="none" xmlns="http://www.w3.org/2000/svg">
<g id="icons8-dribbble">
<path id="Vector" d="M4.08333 7.735C5.11 6.125 6.51 4.78333 8.17833 3.84999C10.5933 4.64333 13.2183 6.18333 15.2367 8.48166C11.8533 9.71833 7.88666 9.73 4.08333 7.735ZM7.50166 23.7417C4.34 21.6533 2.25166 18.0717 2.25166 14C2.25166 12.53 2.52 11.1183 3.03333 9.82333C5.495 11.1067 8.015 11.6783 10.4533 11.6783C12.6467 11.6783 14.7583 11.2233 16.6833 10.43C17.115 11.13 17.4883 11.9 17.7917 12.7167C16.6833 13.1133 15.5867 13.6383 14.5483 14.28C10.9667 16.52 8.44666 19.9033 7.50166 23.7417ZM11.3283 2.62499C12.1567 2.43833 13.0317 2.33333 13.9183 2.33333C16.5783 2.33333 19.0167 3.21999 20.9767 4.71333C19.985 5.78666 18.7833 6.73166 17.4417 7.47833C15.715 5.33166 13.5217 3.72166 11.3283 2.62499ZM18.5967 16.205C19.1333 21.6417 16.73 24.99 16.4383 25.3867C16.4267 25.3867 16.4267 25.3983 16.4267 25.3983C15.6217 25.5733 14.7817 25.6667 13.9183 25.6667C12.4017 25.6667 10.9667 25.375 9.63666 24.85C10.325 21.3733 12.5417 18.27 15.7733 16.2633C16.625 15.7267 17.5117 15.295 18.4217 14.9683C18.4917 15.365 18.55 15.785 18.5967 16.205ZM25.5733 14.3967C25.4333 18.5267 23.1583 22.12 19.7983 24.08C20.5683 22.2133 21.2683 19.46 20.9183 15.9717C20.86 15.4117 20.7783 14.8633 20.6733 14.3383C22.3533 14.0117 24.0217 14.0233 25.5733 14.3967ZM20.055 12.0867C19.705 11.13 19.285 10.2317 18.7833 9.40333C20.265 8.55166 21.595 7.50166 22.68 6.3C24.0683 7.875 25.0367 9.82333 25.41 11.9817C23.6833 11.6783 21.8633 11.7133 20.055 12.0867Z" fill="#E2CE06"/>
</g>
</svg>
