<svg width="28" height="28" viewBox="0 0 28 28" fill="none" xmlns="http://www.w3.org/2000/svg">
<g id="icons8-instagram">
<path id="Vector" d="M8.95999 1.67999C4.94479 1.67999 1.67999 4.94479 1.67999 8.95999V19.04C1.67999 23.0552 4.94479 26.32 8.95999 26.32H19.04C23.0552 26.32 26.32 23.0552 26.32 19.04V8.95999C26.32 4.94479 23.0552 1.67999 19.04 1.67999H8.95999ZM20.72 6.15999C21.336 6.15999 21.84 6.66399 21.84 7.27999C21.84 7.89599 21.336 8.39999 20.72 8.39999C20.104 8.39999 19.6 7.89599 19.6 7.27999C19.6 6.66399 20.104 6.15999 20.72 6.15999ZM14 7.83999C17.3992 7.83999 20.16 10.6008 20.16 14C20.16 17.3992 17.3992 20.16 14 20.16C10.6008 20.16 7.83999 17.3992 7.83999 14C7.83999 10.6008 10.6008 7.83999 14 7.83999ZM14 8.95999C11.2224 8.95999 8.95999 11.2224 8.95999 14C8.95999 16.7776 11.2224 19.04 14 19.04C16.7776 19.04 19.04 16.7776 19.04 14C19.04 11.2224 16.7776 8.95999 14 8.95999Z" fill="#E2CE06"/>
</g>
</svg>
