<svg width="29" height="28" viewBox="0 0 29 28" fill="none" xmlns="http://www.w3.org/2000/svg">
<g id="icons8-dribbble">
<path id="Vector" d="M4.85163 7.73492C5.87829 6.12492 7.27829 4.78325 8.94663 3.84992C11.3616 4.64325 13.9866 6.18325 16.005 8.48159C12.6216 9.71825 8.65496 9.72992 4.85163 7.73492ZM8.26996 23.7416C5.10829 21.6533 3.01996 18.0716 3.01996 13.9999C3.01996 12.5299 3.28829 11.1183 3.80163 9.82325C6.26329 11.1066 8.78329 11.6783 11.2216 11.6783C13.415 11.6783 15.5266 11.2233 17.4516 10.4299C17.8833 11.1299 18.2566 11.8999 18.56 12.7166C17.4516 13.1133 16.355 13.6383 15.3166 14.2799C11.735 16.5199 9.21496 19.9033 8.26996 23.7416ZM12.0966 2.62492C12.925 2.43825 13.8 2.33325 14.6866 2.33325C17.3466 2.33325 19.785 3.21992 21.745 4.71325C20.7533 5.78659 19.5516 6.73159 18.21 7.47825C16.4833 5.33159 14.29 3.72159 12.0966 2.62492ZM19.365 16.2049C19.9016 21.6416 17.4983 24.9899 17.2066 25.3866C17.195 25.3866 17.195 25.3983 17.195 25.3983C16.39 25.5733 15.55 25.6666 14.6866 25.6666C13.17 25.6666 11.735 25.3749 10.405 24.8499C11.0933 21.3733 13.31 18.2699 16.5416 16.2633C17.3933 15.7266 18.28 15.2949 19.19 14.9683C19.26 15.3649 19.3183 15.7849 19.365 16.2049ZM26.3416 14.3966C26.2016 18.5266 23.9266 22.1199 20.5666 24.0799C21.3366 22.2133 22.0366 19.4599 21.6866 15.9716C21.6283 15.4116 21.5466 14.8633 21.4416 14.3383C23.1216 14.0116 24.79 14.0233 26.3416 14.3966ZM20.8233 12.0866C20.4733 11.1299 20.0533 10.2316 19.5516 9.40325C21.0333 8.55159 22.3633 7.50159 23.4483 6.29992C24.8366 7.87492 25.805 9.82325 26.1783 11.9816C24.4516 11.6783 22.6316 11.7133 20.8233 12.0866Z" fill="#1E2429"/>
</g>
</svg>
