<svg width="29" height="28" viewBox="0 0 29 28" fill="none" xmlns="http://www.w3.org/2000/svg">
<g id="icons8-instagram">
<path id="Vector" d="M9.7283 1.67993C5.7131 1.67993 2.4483 4.94473 2.4483 8.95993V19.0399C2.4483 23.0551 5.7131 26.3199 9.7283 26.3199H19.8083C23.8235 26.3199 27.0883 23.0551 27.0883 19.0399V8.95993C27.0883 4.94473 23.8235 1.67993 19.8083 1.67993H9.7283ZM21.4883 6.15993C22.1043 6.15993 22.6083 6.66393 22.6083 7.27993C22.6083 7.89593 22.1043 8.39993 21.4883 8.39993C20.8723 8.39993 20.3683 7.89593 20.3683 7.27993C20.3683 6.66393 20.8723 6.15993 21.4883 6.15993ZM14.7683 7.83993C18.1675 7.83993 20.9283 10.6007 20.9283 13.9999C20.9283 17.3991 18.1675 20.1599 14.7683 20.1599C11.3691 20.1599 8.6083 17.3991 8.6083 13.9999C8.6083 10.6007 11.3691 7.83993 14.7683 7.83993ZM14.7683 8.95993C11.9907 8.95993 9.7283 11.2223 9.7283 13.9999C9.7283 16.7775 11.9907 19.0399 14.7683 19.0399C17.5459 19.0399 19.8083 16.7775 19.8083 13.9999C19.8083 11.2223 17.5459 8.95993 14.7683 8.95993Z" fill="#1E2429"/>
</g>
</svg>
