<svg width="28" height="28" viewBox="0 0 28 28" fill="none" xmlns="http://www.w3.org/2000/svg">
<g id="icons8-discord 1">
<path id="Vector" d="M10.5875 3.92C10.5875 3.92 7.02187 4.165 4.69 6.0375C4.67906 6.04187 4.66594 6.04844 4.655 6.055C4.25031 6.42906 3.94625 7.00875 3.57 7.84C3.19375 8.67125 2.79562 9.74094 2.4325 10.9375C1.70844 13.3328 1.12 16.2728 1.12 19.04C1.11781 19.1384 1.14187 19.2347 1.19 19.32C2.00812 20.7572 3.51312 21.6256 4.9175 22.1725C6.32187 22.7194 7.61906 22.9381 8.2775 22.96C8.46344 22.9666 8.64062 22.8812 8.75 22.7325L10.115 20.8425C11.2153 21.1028 12.5059 21.28 14 21.28C15.4941 21.28 16.7847 21.1028 17.885 20.8425L19.25 22.7325C19.3594 22.8812 19.5366 22.9666 19.7225 22.96C20.3809 22.9381 21.6781 22.7194 23.0825 22.1725C24.4869 21.6256 25.9919 20.7572 26.81 19.32C26.8581 19.2347 26.8822 19.1384 26.88 19.04C26.88 16.2728 26.2916 13.3328 25.5675 10.9375C25.2044 9.74094 24.8062 8.67125 24.43 7.84C24.0537 7.00875 23.7497 6.42906 23.345 6.055C23.3341 6.04844 23.3209 6.04187 23.31 6.0375C20.9781 4.165 17.4125 3.92 17.4125 3.92C17.3709 3.91562 17.3316 3.91562 17.29 3.92C17.0953 3.94625 16.9312 4.07312 16.8525 4.2525C16.8525 4.2525 16.6622 4.67031 16.5375 5.2675C15.4459 5.0925 14.5272 5.04 14 5.04C13.4728 5.04 12.5541 5.0925 11.4625 5.2675C11.3378 4.67031 11.1475 4.2525 11.1475 4.2525C11.0512 4.03375 10.8259 3.90031 10.5875 3.92ZM10.2375 5.1275C10.2791 5.24125 10.3075 5.34844 10.3425 5.4775C9.08031 5.77062 7.69781 6.24969 6.405 7.0525C6.20156 7.13781 6.06812 7.33469 6.06156 7.55562C6.05719 7.77437 6.18187 7.97781 6.37875 8.07406C6.57781 8.16812 6.81406 8.13969 6.9825 7.9975C9.57687 6.38969 12.8778 6.16 14 6.16C15.1222 6.16 18.4231 6.38969 21.0175 7.9975C21.1859 8.13969 21.4222 8.16812 21.6212 8.07406C21.8181 7.97781 21.9428 7.77437 21.9384 7.55562C21.9319 7.33469 21.7984 7.13781 21.595 7.0525C20.3022 6.24969 18.9197 5.77062 17.6575 5.4775C17.6925 5.34844 17.7209 5.24125 17.7625 5.1275C18.4012 5.20625 20.8841 5.54094 22.575 6.8775C22.6844 6.97812 23.065 7.53812 23.415 8.3125C23.765 9.08687 24.1325 10.0953 24.4825 11.2525C25.165 13.51 25.7162 16.2947 25.7425 18.8475C25.1059 19.8778 23.9116 20.6434 22.68 21.1225C21.56 21.5578 20.5144 21.7525 19.9675 21.805L19.0225 20.5275C19.5037 20.3722 19.9369 20.2037 20.3175 20.0375C21.7306 19.4162 22.4875 18.76 22.4875 18.76C22.7194 18.5522 22.7391 18.1956 22.5312 17.9637C22.3234 17.7319 21.9669 17.7122 21.735 17.92C21.735 17.92 21.1487 18.4559 19.8625 19.0225C19.39 19.2303 18.8169 19.4359 18.165 19.6175C18.0141 19.6 17.8631 19.6437 17.745 19.74C16.7016 19.9937 15.4612 20.16 14 20.16C12.5278 20.16 11.2853 19.9784 10.2375 19.7225C10.1194 19.6437 9.975 19.6109 9.835 19.635C9.18094 19.4534 8.61219 19.2303 8.1375 19.0225C6.85125 18.4559 6.265 17.92 6.265 17.92C6.13812 17.8019 5.96312 17.7516 5.7925 17.78C5.57594 17.8128 5.39656 17.9681 5.3375 18.1803C5.27625 18.3903 5.34625 18.6178 5.5125 18.76C5.5125 18.76 6.26937 19.4162 7.6825 20.0375C8.06312 20.2037 8.49625 20.3722 8.9775 20.5275L8.0325 21.805C7.48562 21.7525 6.44 21.5578 5.32 21.1225C4.08844 20.6434 2.89406 19.8778 2.2575 18.8475C2.28375 16.2947 2.835 13.51 3.5175 11.2525C3.8675 10.0953 4.235 9.08687 4.585 8.3125C4.935 7.53812 5.31562 6.97812 5.425 6.8775C7.11594 5.54094 9.59875 5.20625 10.2375 5.1275ZM10.36 11.76C8.93156 11.76 7.84 13.0572 7.84 14.56C7.84 16.0628 8.93156 17.36 10.36 17.36C11.7884 17.36 12.88 16.0628 12.88 14.56C12.88 13.0572 11.7884 11.76 10.36 11.76ZM17.64 11.76C16.2116 11.76 15.12 13.0572 15.12 14.56C15.12 16.0628 16.2116 17.36 17.64 17.36C19.0684 17.36 20.16 16.0628 20.16 14.56C20.16 13.0572 19.0684 11.76 17.64 11.76ZM10.36 12.88C11.0972 12.88 11.76 13.5887 11.76 14.56C11.76 15.5312 11.0972 16.24 10.36 16.24C9.62281 16.24 8.96 15.5312 8.96 14.56C8.96 13.5887 9.62281 12.88 10.36 12.88ZM17.64 12.88C18.3772 12.88 19.04 13.5887 19.04 14.56C19.04 15.5312 18.3772 16.24 17.64 16.24C16.9028 16.24 16.24 15.5312 16.24 14.56C16.24 13.5887 16.9028 12.88 17.64 12.88Z" fill="#E2CE06"/>
</g>
</svg>
