<svg width="78" height="79" viewBox="0 0 78 79" fill="none" xmlns="http://www.w3.org/2000/svg">
<ellipse cx="23.4165" cy="31.7015" rx="23.4165" ry="31.7015" transform="matrix(0.728714 0.684818 -0.685664 0.727919 43.4731 0)" fill="#1E2429"/>
<path fill-rule="evenodd" clip-rule="evenodd" d="M17.064 62.1883C26.4882 71.0448 43.8598 67.8929 55.8645 55.1483C67.8693 42.4037 69.9613 24.8926 60.5372 16.0361C51.113 7.17963 33.7414 10.3316 21.7366 23.0762C9.73184 35.8208 7.63984 53.3319 17.064 62.1883ZM27.6289 31.425L25.1106 33.3512L36.4978 48.2044C37.1564 49.0634 37.5784 49.894 37.7639 50.6963C37.9511 51.4867 37.9074 52.2283 37.6331 52.921C37.3587 53.6137 36.8593 54.237 36.135 54.7911C35.4783 55.2933 34.7994 55.6195 34.0983 55.7695C33.3971 55.9195 32.7317 55.892 32.1019 55.6869C31.4738 55.4699 30.9341 55.0672 30.483 54.4788L28.0053 56.3738C28.8195 57.4357 29.7759 58.1581 30.8748 58.5408C31.9737 58.9235 33.1272 58.9854 34.3355 58.7265C35.5387 58.4608 36.7089 57.893 37.8462 57.0231C39.0511 56.1015 39.913 55.0614 40.4316 53.9029C40.9503 52.7443 41.0981 51.5154 40.8751 50.2159C40.6521 48.9165 40.0324 47.6039 39.0161 46.2782L27.6289 31.425ZM44.7127 22.8004C46.0148 22.7058 47.1209 23.1259 48.0309 24.0608L50.468 22.1968C49.6304 21.1743 48.5872 20.486 47.3386 20.132C46.0967 19.7729 44.773 19.7552 43.3675 20.0792C41.9569 20.3963 40.5813 21.0675 39.2409 22.0927C37.9141 23.1076 36.8992 24.2701 36.1962 25.5804C35.4948 26.8787 35.1603 28.2075 35.1929 29.5667C35.2271 30.914 35.6901 32.1693 36.582 33.3327C37.6554 34.7328 38.9978 35.5033 40.6093 35.6442C42.2207 35.785 44.0177 35.4675 46.0002 34.6915L49.1191 33.4648C50.0058 33.1085 50.8677 32.8248 51.7046 32.6138C52.5416 32.4029 53.319 32.3662 54.0367 32.504C54.7544 32.6417 55.3778 33.0555 55.9067 33.7454C56.4874 34.503 56.7722 35.3367 56.761 36.2466C56.7446 37.1497 56.4758 38.0528 55.9545 38.9558C55.4281 39.852 54.6842 40.6677 53.723 41.403C52.8971 42.0347 52.032 42.5032 51.1278 42.8086C50.2251 43.102 49.3458 43.1737 48.4898 43.0237C47.6353 42.8617 46.8735 42.4143 46.2043 41.6815L43.6048 43.6698C44.5572 44.744 45.6707 45.475 46.9452 45.8628C48.2266 46.2454 49.5929 46.2626 51.0442 45.9144C52.5023 45.561 53.976 44.8147 55.4653 43.6756C57.0629 42.4536 58.2154 41.1483 58.9227 39.7596C59.6368 38.3658 59.9375 36.993 59.8249 35.6414C59.719 34.2846 59.2356 33.0448 58.3748 31.922C57.6281 30.948 56.7984 30.279 55.8857 29.9149C54.9729 29.5507 54.0452 29.3912 53.1024 29.4363C52.1613 29.4694 51.2597 29.6171 50.3977 29.8795C49.5424 30.1367 48.7895 30.4013 48.1391 30.6735L45.5914 31.7208C45.1277 31.9145 44.6035 32.1062 44.0187 32.296C43.4288 32.479 42.8254 32.6025 42.2087 32.6665C41.5867 32.7237 40.99 32.6598 40.4184 32.4746C39.8485 32.2775 39.3509 31.9016 38.9257 31.347C38.4175 30.6841 38.1534 29.9473 38.1332 29.1365C38.1198 28.3206 38.3408 27.5023 38.7964 26.6818C39.2587 25.856 39.9502 25.0911 40.8709 24.3869C42.13 23.4238 43.4107 22.895 44.7127 22.8004Z" fill="#E2CE06"/>
</svg>
