<svg width="24" height="24" viewBox="0 0 24 24" fill="none" xmlns="http://www.w3.org/2000/svg">
<g id="telegram">
<path id="Vector 121" d="M20.2053 1.26491L10.2857 4.57143C6.5257 5.82477 4.64569 6.45144 4.38238 7.52256C4.30528 7.83619 4.30528 8.16381 4.38238 8.47744C4.64569 9.54856 6.5257 10.1752 10.2857 11.4286C11.0356 11.6785 11.4105 11.8035 11.701 12.0462C11.7927 12.1227 11.8773 12.2073 11.9538 12.299C12.1965 12.5895 12.3215 12.9644 12.5714 13.7143C13.8248 17.4743 14.4514 19.3543 15.5226 19.6176C15.8362 19.6947 16.1638 19.6947 16.4774 19.6176C17.5486 19.3543 18.1752 17.4743 19.4286 13.7143L22.7351 3.79473C23.287 2.13894 23.563 1.31105 23.126 0.874032C22.689 0.437016 21.8611 0.712981 20.2053 1.26491Z" stroke="#E2CE06"/>
</g>
</svg>
