<svg width="24" height="24" viewBox="0 0 24 24" fill="none" xmlns="http://www.w3.org/2000/svg">
<g id="Union">
<path fill-rule="evenodd" clip-rule="evenodd" d="M12 22.3333C17.7069 22.3333 22.3333 17.7069 22.3333 12C22.3333 6.29306 17.7069 1.66667 12 1.66667C6.29306 1.66667 1.66667 6.29306 1.66667 12C1.66667 17.7069 6.29306 22.3333 12 22.3333ZM11.032 19.3013H12.584C12.7683 19.3013 12.9173 19.1523 12.9173 18.9683V10.6483C12.9173 10.5097 12.8316 10.385 12.7016 10.3363L11.1496 9.75233C11.0473 9.71367 10.9326 9.72733 10.8423 9.79C10.7523 9.852 10.6986 9.95467 10.6986 10.064V18.968C10.6986 19.1523 10.8476 19.3013 11.032 19.3013ZM7.73599 10.3973C7.72033 10.3973 7.70466 10.3963 7.68899 10.394L6.33699 10.202C6.17266 10.1787 6.05066 10.038 6.05066 9.872C6.05066 7.38367 7.52999 6.25067 8.90399 6.25067C10.1823 6.25067 10.523 6.42467 11.6533 7.00233C11.8023 7.07867 11.9663 7.162 12.1497 7.25433C13.7107 8.039 14.026 8.18667 14.712 8.18667C14.9593 8.18667 15.5387 8.18667 15.5387 6.77633C15.5387 6.592 15.6877 6.443 15.872 6.443H17.224C17.3977 6.443 17.542 6.576 17.5563 6.749C17.6777 8.21733 17.202 9.06967 16.7823 9.52633C16.2647 10.0883 15.5267 10.3977 14.7043 10.3977C13.2653 10.3977 12.8403 10.1877 11.4423 9.38533C10.0963 8.613 9.77299 8.46167 9.08799 8.46167C8.70666 8.46167 8.28233 8.58933 8.06633 10.1113C8.05399 10.199 8.00699 10.278 7.93633 10.331C7.87833 10.3743 7.80799 10.3973 7.73599 10.3973Z" fill="#E2CE06"/>
<path fill-rule="evenodd" clip-rule="evenodd" d="M12 24C5.383 24 0 18.617 0 12C0 5.383 5.383 0 12 0C18.617 0 24 5.383 24 12C24 18.617 18.617 24 12 24ZM12 0.5C5.75067 0.5 0.5 5.75067 0.5 12C0.5 18.2493 5.75067 23.5 12 23.5C18.2493 23.5 23.5 18.2493 23.5 12C23.5 5.75067 18.2493 0.5 12 0.5Z" fill="#E2CE06"/>
</g>
</svg>
