<svg width="25" height="24" viewBox="0 0 25 24" fill="none" xmlns="http://www.w3.org/2000/svg">
<g id="Union">
<path fill-rule="evenodd" clip-rule="evenodd" d="M12.7683 22.3333C18.4753 22.3333 23.1016 17.7069 23.1016 12C23.1016 6.29306 18.4753 1.66667 12.7683 1.66667C7.06137 1.66667 2.43498 6.29306 2.43498 12C2.43498 17.7069 7.06137 22.3333 12.7683 22.3333ZM11.8003 19.3013H13.3523C13.5366 19.3013 13.6856 19.1523 13.6856 18.9683V10.6483C13.6856 10.5097 13.6 10.385 13.47 10.3363L11.918 9.75233C11.8156 9.71367 11.701 9.72733 11.6106 9.79C11.5206 9.852 11.467 9.95467 11.467 10.064V18.968C11.467 19.1523 11.616 19.3013 11.8003 19.3013ZM8.5043 10.3973C8.48864 10.3973 8.47297 10.3963 8.4573 10.394L7.1053 10.202C6.94097 10.1787 6.81897 10.038 6.81897 9.872C6.81897 7.38367 8.2983 6.25067 9.6723 6.25067C10.9506 6.25067 11.2913 6.42467 12.4216 7.00233C12.5706 7.07867 12.7346 7.162 12.918 7.25433C14.479 8.039 14.7943 8.18667 15.4803 8.18667C15.7276 8.18667 16.307 8.18667 16.307 6.77633C16.307 6.592 16.456 6.443 16.6403 6.443H17.9923C18.166 6.443 18.3103 6.576 18.3246 6.749C18.446 8.21733 17.9703 9.06967 17.5506 9.52633C17.033 10.0883 16.295 10.3977 15.4726 10.3977C14.0336 10.3977 13.6086 10.1877 12.2106 9.38533C10.8646 8.613 10.5413 8.46167 9.8563 8.46167C9.47497 8.46167 9.05064 8.58933 8.83464 10.1113C8.8223 10.199 8.7753 10.278 8.70464 10.331C8.64664 10.3743 8.5763 10.3973 8.5043 10.3973Z" fill="#1E2429"/>
<path fill-rule="evenodd" clip-rule="evenodd" d="M12.7683 24C6.15131 24 0.768311 18.617 0.768311 12C0.768311 5.383 6.15131 0 12.7683 0C19.3853 0 24.7683 5.383 24.7683 12C24.7683 18.617 19.3853 24 12.7683 24ZM12.7683 0.5C6.51898 0.5 1.26831 5.75067 1.26831 12C1.26831 18.2493 6.51898 23.5 12.7683 23.5C19.0176 23.5 24.2683 18.2493 24.2683 12C24.2683 5.75067 19.0176 0.5 12.7683 0.5Z" fill="#1E2429"/>
</g>
</svg>
