<svg version="1.1" id="Layer_1" xmlns="http://www.w3.org/2000/svg" xmlns:xlink="http://www.w3.org/1999/xlink" 
	 width="1008" height="1008" viewBox="0 0 1008 1008" enable-background="new 0 0 1008 1008" xml:space="preserve">
<path fill="#000000" opacity="1.000000" stroke="none" 
	d="
M619.900269,693.321777 
	C609.395996,691.528442 602.092712,685.965088 596.062622,677.726074 
	C561.226379,630.129150 526.127625,582.724426 491.182800,535.206726 
	C485.065002,526.887878 484.953217,522.683167 490.626007,514.303650 
	C512.108154,482.571777 533.734924,450.937683 555.183411,419.183136 
	C557.503113,415.748810 560.149780,414.545502 564.258789,414.531036 
	C586.583618,414.452576 608.907349,414.069885 631.231750,413.818695 
	C632.651611,413.802734 634.200317,413.233093 635.524292,414.514984 
	C634.473633,416.621460 632.443726,416.041840 630.747253,416.347260 
	C618.397339,418.570831 606.285889,421.395020 596.077209,429.372955 
	C593.017273,431.764252 590.366516,434.497833 588.221680,437.694397 
	C571.952454,461.941162 557.387817,487.117859 545.935303,514.053162 
	C541.659485,524.109497 543.403992,532.450134 550.217896,540.844421 
	C561.973938,555.327271 573.078308,570.339111 584.472473,585.116333 
	C585.769409,586.798340 587.171265,588.399597 589.011963,590.015198 
	C587.689331,585.397766 590.718506,582.562561 592.711792,579.358459 
	C623.074951,530.552734 653.430481,481.742249 683.840576,432.965729 
	C686.923706,428.020538 690.439575,423.346558 693.577087,418.433319 
	C695.384277,415.603302 697.663818,414.469482 701.043335,414.573914 
	C710.859741,414.877197 720.669495,414.210266 730.508179,414.459015 
	C742.816528,414.770264 755.148804,414.112518 767.471436,413.912354 
	C768.916016,413.888855 770.459900,413.431610 772.019104,414.651642 
	C771.625427,416.830505 769.994446,417.288391 768.098389,417.357727 
	C752.384399,417.932159 739.224487,424.388580 727.894165,434.937622 
	C717.226196,444.869995 708.481140,456.425140 700.088379,468.266724 
	C669.262939,511.759247 637.974670,554.926086 608.101135,599.088379 
	C602.408020,607.504578 601.986206,608.302551 607.999023,616.158264 
	C622.982361,635.734009 637.660828,655.576965 654.041443,674.029114 
	C666.777649,688.375916 683.008728,698.381348 698.839050,708.832214 
	C700.308716,709.802490 702.323730,710.133850 703.288574,712.972778 
	C675.299255,706.362305 647.804504,699.868713 619.900269,693.321777 
z"/>
<path fill="#000000" opacity="1.000000" stroke="none" 
	d="
M430.179016,669.739746 
	C403.110504,617.897461 376.218353,566.383606 349.340637,514.862122 
	C348.495209,513.241516 347.666077,511.588165 347.081757,509.864502 
	C346.725952,508.814941 346.453888,507.442810 346.831665,506.487335 
	C349.005188,500.989838 358.275879,497.037811 363.787720,499.442841 
	C371.358887,502.746460 378.895569,502.793121 386.625183,500.241791 
	C391.250519,498.715088 393.245239,502.501129 395.212891,505.240753 
	C403.310699,516.515747 408.933441,529.214050 415.256775,541.486694 
	C443.703552,596.697693 471.978149,651.997437 500.348816,707.247681 
	C501.299622,709.099365 501.871246,711.304443 504.575317,712.895813 
	C523.188171,688.160767 539.210266,661.722351 557.977722,636.238647 
	C563.777039,642.225220 567.743774,648.721191 572.152222,654.835999 
	C573.433777,656.613708 571.715698,658.305298 570.828125,659.842102 
	C554.340576,688.389221 537.794983,716.902832 521.340088,745.468811 
	C514.026733,758.164978 506.900940,770.969116 499.656311,783.705078 
	C498.117950,786.409485 496.777100,789.270081 493.992767,792.049011 
	C472.644043,751.125732 451.500824,710.596375 430.179016,669.739746 
z"/>
<path fill="#000000" opacity="1.000000" stroke="none" 
	d="
M344.131500,320.131531 
	C336.348999,326.781616 328.161133,329.221588 318.010895,327.515808 
	C310.945740,326.328491 310.716339,328.322876 311.404022,334.618805 
	C313.879669,357.284485 326.190460,375.766144 336.590271,395.024200 
	C351.786896,423.164917 367.383087,451.089783 382.788605,479.117859 
	C383.901276,481.142151 385.189087,483.116241 385.610840,486.209137 
	C378.879883,483.439514 372.519623,480.824402 366.160919,478.205475 
	C353.229431,472.879395 340.318390,467.502625 327.354462,462.256622 
	C323.942200,460.875793 321.682190,458.740295 319.907806,455.414062 
	C301.563110,421.025665 282.953064,386.778748 264.621582,352.383362 
	C252.642929,329.907837 234.303040,315.231873 210.515427,306.884888 
	C204.938522,304.928009 199.458939,302.693817 194.120041,299.632446 
	C225.809082,310.103790 258.435150,306.480255 290.738434,307.086975 
	C323.275909,307.698120 355.857758,308.762787 387.909698,300.335968 
	C373.761627,307.859863 358.229218,311.965973 344.131500,320.131531 
z"/>
<path fill="#000000" opacity="1.000000" stroke="none" 
	d="
M457.145233,419.213257 
	C471.080109,393.194153 483.749390,366.908478 498.933838,341.990204 
	C505.477112,331.252441 513.153259,321.492676 523.470581,313.989044 
	C530.930359,308.563721 539.563782,306.919647 548.325867,305.855316 
	C564.487671,303.892090 580.732910,302.567200 596.652222,298.917572 
	C597.054016,298.825470 597.554565,299.164093 598.095154,299.327881 
	C597.179871,301.695160 594.876099,301.607300 593.156555,302.360840 
	C578.995850,308.565948 564.126709,313.337799 551.403870,322.471863 
	C540.231140,330.493073 532.142578,341.361603 525.124268,352.925781 
	C497.125397,399.059692 469.791656,445.585083 443.733643,492.851532 
	C439.394745,500.721771 434.791260,508.449249 430.176453,516.162781 
	C428.179291,519.501099 428.262024,522.412292 430.075928,525.941223 
	C455.125488,574.675964 480.047241,623.476379 504.972809,672.274780 
	C507.472076,677.167786 509.777863,682.159241 512.201416,687.091309 
	C513.583801,689.904480 513.241089,692.182617 510.371887,693.805115 
	C504.330383,688.225037 334.368042,347.658081 333.437958,339.021118 
	C337.200195,339.945648 338.665558,343.005524 340.133545,345.744690 
	C349.181976,362.628021 358.180359,379.539398 367.033936,396.525574 
	C382.815308,426.803192 398.471924,457.145844 414.225250,487.438080 
	C415.031921,488.989197 415.523987,490.934723 418.663696,491.875366 
	C432.169312,468.317261 443.996765,443.614716 457.145233,419.213257 
z"/>
<path fill="#000000" opacity="1.000000" stroke="none" 
	d="
M441.230072,503.580078 
	C442.717865,501.171783 444.035583,499.107849 445.261536,497.187592 
	C447.998840,497.663513 448.389648,499.692505 449.176361,501.227814 
	C473.793091,549.266785 499.763184,596.581299 525.685608,643.919006 
	C527.780151,647.743896 528.351746,650.732788 525.584351,654.289429 
	C523.895752,656.459656 523.523315,659.527344 521.202271,661.431580 
	C518.785645,660.745911 518.555176,658.482117 517.724243,656.817017 
	C495.037811,611.355469 472.081512,566.031128 448.696960,520.924377 
	C446.627319,516.932190 444.393585,513.025330 442.286041,509.052368 
	C441.444489,507.465942 440.223633,505.929321 441.230072,503.580078 
z"/>
<path fill="#000000" opacity="1.000000" stroke="none" 
	d="
M370.538147,338.564270 
	C388.011627,373.227478 405.188293,407.623505 422.766235,441.813171 
	C425.438629,447.011139 424.002869,450.379944 421.166260,454.140533 
	C419.446289,453.865265 419.167267,452.634857 418.645691,451.643188 
	C398.814819,413.938934 378.972595,376.240601 359.173492,338.519653 
	C354.913910,330.404327 354.986572,330.366180 363.032745,323.152283 
	C365.541107,328.305206 367.956696,333.267487 370.538147,338.564270 
z"/>
</svg>